<?xml version="1.0" standalone="no"?>
<!DOCTYPE svg PUBLIC "-//W3C//DTD SVG 20010904//EN"
 "http://www.w3.org/TR/2001/REC-SVG-20010904/DTD/svg10.dtd">
<svg version="1.0" xmlns="http://www.w3.org/2000/svg"
 width="501.000000pt" height="501.000000pt" viewBox="0 0 501.000000 501.000000"
 preserveAspectRatio="xMidYMid meet">
<metadata>
Created by potrace 1.14, written by Peter Selinger 2001-2017
</metadata>
<g transform="translate(0.000000,501.000000) scale(0.100000,-0.100000)"
fill="#000000" stroke="none">
<path d="M2353 4220 c-18 -4 -33 -5 -33 -3 0 3 -6 1 -12 -4 -13 -10 -86 -28
-100 -25 -5 1 -8 -3 -8 -9 0 -5 -4 -8 -9 -5 -11 7 -211 -93 -211 -107 0 -6 -3
-8 -6 -4 -8 7 -82 -51 -139 -109 -62 -64 -96 -104 -88 -104 5 0 0 -5 -9 -11
-10 -5 -18 -17 -18 -24 0 -8 -4 -15 -8 -15 -5 0 -19 -22 -32 -50 -13 -27 -28
-50 -33 -50 -6 0 -7 -3 -4 -6 4 -4 0 -19 -8 -33 -16 -29 -53 -142 -59 -181 -3
-14 -5 -25 -6 -25 -4 0 -10 -84 -13 -177 -2 -54 -1 -98 3 -98 4 0 6 -12 5 -27
-4 -79 103 -365 149 -395 6 -4 7 -8 3 -8 -5 0 -2 -6 5 -14 7 -8 24 -29 38 -48
34 -45 117 -128 165 -163 22 -17 42 -32 45 -35 3 -3 16 -11 30 -18 14 -7 50
-26 80 -42 30 -17 73 -36 95 -42 22 -6 46 -16 52 -21 7 -5 20 -7 28 -3 8 3 15
2 15 -2 0 -4 11 -9 26 -10 14 -1 23 2 19 8 -3 6 -1 10 4 10 6 0 11 3 10 8 -2
15 14 52 23 52 5 0 7 4 3 9 -3 5 -1 12 5 16 6 4 8 11 5 16 -4 5 -1 9 4 9 6 0
11 4 11 9 0 5 28 70 63 143 35 73 64 136 65 141 1 4 8 20 16 35 8 15 22 41 30
58 l15 32 -62 0 c-79 0 -110 7 -172 37 -92 45 -168 136 -199 237 -21 70 -11
222 16 255 6 7 8 13 4 13 -3 0 6 18 20 40 15 22 31 40 35 40 5 0 9 5 9 10 0
14 62 69 78 70 6 0 12 4 12 9 0 5 14 12 30 16 17 4 30 10 30 14 0 4 6 8 13 9
6 1 26 4 42 7 33 6 132 7 155 2 55 -14 128 -51 173 -88 33 -28 97 -111 102
-134 1 -5 5 -17 8 -25 4 -8 9 -26 11 -40 3 -14 5 -25 7 -25 1 0 2 -30 3 -67 1
-38 -2 -68 -6 -68 -5 0 -7 -3 -6 -7 4 -17 -14 -83 -22 -83 -6 0 -9 -3 -8 -7 2
-11 -14 -48 -66 -152 -24 -50 -41 -92 -38 -95 3 -4 0 -6 -6 -6 -7 0 -12 -5
-12 -10 0 -6 -29 -71 -65 -145 -35 -75 -65 -137 -65 -140 0 -3 -21 -45 -45
-95 -25 -49 -45 -94 -45 -100 0 -5 -5 -10 -12 -10 -6 0 -8 -3 -5 -6 3 -4 1
-16 -5 -28 -7 -11 -13 -23 -13 -26 -1 -3 -11 -24 -23 -46 -11 -23 -18 -44 -15
-48 4 -3 2 -6 -4 -6 -6 0 -16 -15 -23 -32 -24 -61 -27 -60 -192 20 -84 41
-159 75 -165 75 -7 0 -13 3 -13 6 0 3 -27 17 -60 31 -33 14 -60 28 -60 33 0 4
-6 7 -13 7 -6 0 -46 16 -87 36 -41 20 -111 54 -155 74 -44 21 -142 67 -218
104 -75 36 -144 66 -152 66 -8 0 -15 4 -15 9 0 6 -9 8 -20 6 -11 -2 -20 0 -20
6 0 5 -3 8 -7 7 -5 -1 -19 2 -33 5 -14 4 -38 9 -55 11 -16 2 -30 5 -30 6 0 1
-27 4 -60 5 -33 2 -62 4 -65 5 -9 3 -110 -1 -142 -6 -66 -10 -129 -23 -140
-30 -5 -3 -20 -8 -35 -10 -15 -3 -32 -9 -38 -14 -5 -4 -19 -10 -30 -12 -11 -1
-26 -9 -33 -15 -7 -7 -22 -13 -33 -13 -10 0 -19 -4 -19 -10 0 -5 -5 -10 -11
-10 -26 0 -142 -91 -227 -178 -51 -52 -91 -97 -88 -99 3 -3 -4 -15 -15 -26
-11 -12 -27 -38 -36 -59 -9 -21 -21 -38 -26 -38 -5 0 -7 -7 -3 -15 3 -8 1 -15
-4 -15 -6 0 -10 -6 -10 -12 0 -7 -7 -26 -15 -42 -8 -15 -12 -32 -9 -37 3 -5 1
-9 -3 -9 -5 0 -15 -28 -22 -62 -8 -35 -18 -71 -23 -82 -7 -13 -7 -16 2 -11 9
6 9 3 2 -11 -15 -29 -16 -248 -1 -239 8 6 9 3 1 -11 -6 -10 -7 -27 -2 -39 5
-12 11 -38 14 -59 3 -20 13 -52 20 -71 8 -19 12 -35 9 -35 -3 0 0 -6 6 -13 6
-8 8 -17 4 -20 -3 -4 -1 -7 5 -7 7 0 12 -6 12 -14 0 -17 59 -129 83 -156 9
-11 17 -25 17 -30 0 -6 5 -10 10 -10 6 0 10 -7 10 -16 0 -8 5 -12 10 -9 6 3
10 0 10 -8 0 -14 115 -127 160 -157 12 -8 28 -20 34 -26 7 -6 28 -19 46 -29
19 -10 41 -22 49 -28 7 -6 18 -12 25 -13 6 -2 39 -14 72 -28 34 -14 72 -27 85
-28 13 -2 26 -6 29 -10 3 -4 22 -8 43 -10 20 -1 37 -5 37 -9 0 -3 27 -5 61 -5
33 1 63 -3 66 -7 3 -4 12 -2 21 5 9 7 13 8 9 2 -4 -8 2 -11 18 -10 14 0 25 3
25 6 0 3 19 6 43 7 41 2 60 4 122 18 17 3 35 7 42 9 7 1 16 5 19 9 4 4 13 7
20 7 7 0 25 5 41 12 15 6 31 11 36 10 4 -1 7 3 7 10 0 6 3 9 6 5 12 -12 214
115 214 135 0 6 3 8 7 5 18 -19 224 239 239 300 4 13 11 23 17 23 6 0 8 3 4 6
-3 4 1 20 9 36 15 29 25 60 26 86 1 6 6 12 11 12 5 0 7 11 5 25 -3 13 0 26 6
28 6 2 9 7 6 9 -8 9 -218 108 -228 108 -5 0 -15 7 -22 15 -7 9 -15 13 -18 11
-2 -3 -14 0 -26 6 -11 7 -24 11 -28 10 -5 -1 -8 2 -8 8 0 5 -4 10 -9 10 -5 0
-52 21 -105 46 -87 41 -127 49 -110 23 9 -16 12 -59 4 -64 -4 -2 -6 -16 -5
-30 2 -14 0 -25 -3 -25 -4 0 -8 -10 -8 -23 -2 -29 -8 -51 -15 -57 -3 -3 -16
-23 -29 -45 -21 -35 -45 -61 -97 -105 -16 -13 -90 -52 -108 -56 -78 -19 -154
-23 -185 -10 -8 3 -24 7 -35 9 -44 8 -75 20 -75 28 0 5 -7 9 -15 9 -8 0 -15 5
-15 10 0 6 -5 10 -11 10 -6 0 -32 21 -56 47 -112 117 -138 286 -67 433 27 56
128 165 143 156 5 -3 12 1 15 10 3 8 10 12 16 9 5 -3 10 -1 10 6 0 7 3 10 6 7
3 -3 27 2 55 12 34 13 49 15 49 7 0 -8 3 -8 8 -2 7 10 92 15 92 5 0 -3 12 -6
28 -5 15 0 30 -3 33 -8 3 -4 19 -10 35 -13 16 -3 31 -8 34 -12 4 -7 56 -33 70
-37 3 0 41 -18 85 -40 90 -44 83 -40 113 -50 12 -4 22 -11 22 -16 0 -5 3 -8 8
-7 10 3 92 -34 92 -42 0 -4 6 -7 13 -7 6 0 65 -26 130 -57 65 -31 122 -56 128
-56 5 0 9 -4 9 -10 0 -5 9 -10 19 -10 11 0 26 -6 33 -13 7 -8 19 -12 26 -9 6
2 12 -1 12 -7 0 -6 4 -11 9 -11 6 0 48 -18 95 -41 47 -22 88 -40 92 -39 4 1
10 -2 13 -7 3 -5 24 -17 46 -27 74 -34 229 -108 325 -154 52 -26 97 -47 100
-47 3 -1 48 -21 100 -46 52 -25 98 -46 103 -47 13 -2 72 -37 79 -47 4 -5 8 -7
8 -2 0 4 10 1 23 -8 13 -8 27 -12 30 -8 4 3 7 1 7 -5 0 -7 3 -11 8 -10 4 1 59
-24 124 -55 64 -31 121 -57 127 -57 6 0 11 -4 11 -10 0 -5 6 -10 13 -10 8 0
52 -19 98 -42 46 -23 86 -42 89 -43 3 0 49 -22 103 -48 54 -26 103 -47 108
-47 5 0 9 -4 9 -10 0 -5 3 -9 8 -8 4 1 29 -8 55 -20 50 -22 163 -59 207 -66
14 -3 25 -5 25 -6 0 -1 20 -3 45 -3 25 -1 51 -6 58 -10 7 -5 12 -3 12 4 0 8 4
8 15 -1 12 -10 15 -10 15 1 0 12 2 12 9 0 7 -11 9 -11 14 0 4 11 6 11 6 1 1
-8 6 -10 13 -6 7 4 30 9 53 11 47 3 100 10 100 13 0 1 9 4 50 13 11 3 40 13
65 22 25 9 50 17 55 19 22 6 90 41 93 49 2 4 11 7 19 7 8 0 27 10 42 22 15 13
40 32 56 43 35 24 189 175 179 175 -4 0 2 10 13 23 40 43 144 247 127 247 -4
0 -2 6 3 13 6 6 14 26 18 42 5 17 9 35 11 40 2 6 6 23 9 39 3 16 8 33 11 38 3
4 0 8 -7 8 -8 0 -8 4 -1 13 10 13 13 257 3 257 -3 0 -7 12 -8 28 0 15 -4 39
-7 55 -11 47 -67 197 -77 203 -5 3 -9 12 -9 20 0 15 -11 31 -94 143 -54 72
-180 191 -203 191 -7 0 -13 4 -13 8 0 4 -26 21 -57 37 -32 17 -60 33 -61 38
-2 4 -8 5 -13 1 -5 -3 -9 0 -9 5 0 6 -3 10 -7 9 -5 0 -15 2 -23 5 -43 18 -149
50 -175 53 -104 13 -137 15 -195 15 -80 -1 -132 -6 -188 -21 -24 -6 -47 -8
-53 -5 -5 4 -9 2 -9 -3 0 -9 -55 -26 -72 -23 -5 0 -8 -3 -8 -9 0 -6 -3 -9 -7
-8 -5 1 -21 -4 -36 -10 -16 -7 -33 -12 -38 -12 -5 0 -9 -4 -9 -8 0 -5 -16 -14
-35 -22 -19 -8 -35 -17 -35 -22 0 -4 -5 -8 -10 -8 -11 0 -24 -10 -61 -42 -10
-10 -19 -15 -19 -11 0 6 -138 -135 -168 -171 -28 -34 -81 -130 -76 -138 3 -4
0 -8 -6 -8 -11 0 -36 -58 -32 -72 1 -5 -2 -8 -7 -8 -5 0 -12 -16 -15 -35 -4
-19 -12 -35 -19 -35 -7 0 -6 -4 3 -10 8 -5 10 -10 4 -10 -6 0 -11 -6 -12 -12
0 -7 -3 -22 -5 -32 -3 -16 12 -27 82 -60 47 -23 89 -45 93 -51 4 -5 8 -6 8 -2
0 5 20 -3 45 -17 24 -15 47 -27 50 -27 23 -3 45 -13 45 -21 0 -6 7 -8 15 -4 8
3 15 2 15 -2 0 -4 24 -18 53 -31 28 -13 72 -34 97 -46 44 -22 46 -22 46 -4 0
10 -3 19 -6 19 -4 0 -7 7 -7 15 0 8 5 15 10 15 5 0 4 6 -2 13 -6 8 -8 16 -5
20 3 3 7 16 8 29 6 51 18 88 28 88 6 0 9 3 5 6 -8 9 40 83 79 121 36 36 139
95 148 86 3 -4 6 -2 6 3 0 11 36 16 115 16 85 -1 108 -5 123 -22 8 -8 11 -9 7
-2 -9 18 92 -44 133 -81 37 -35 98 -135 94 -154 -2 -7 1 -13 5 -13 8 0 12 -31
14 -110 2 -44 -6 -105 -14 -111 -4 -3 -10 -16 -12 -30 -3 -13 -9 -25 -15 -27
-6 -2 -8 -8 -5 -12 3 -5 -3 -18 -15 -30 -11 -11 -17 -20 -13 -20 14 0 -93 -90
-127 -107 -19 -10 -37 -17 -40 -18 -3 0 -10 -3 -16 -7 -18 -12 -155 -27 -166
-18 -2 1 -16 4 -33 6 -16 2 -39 9 -50 14 -11 5 -63 29 -115 53 -52 24 -97 43
-100 43 -3 0 -21 9 -41 22 -20 12 -39 19 -42 15 -4 -3 -7 -2 -7 4 0 10 -36 26
-52 24 -5 -1 -8 3 -8 8 0 5 -13 12 -30 16 -16 4 -30 11 -30 16 0 5 -6 9 -14 9
-8 0 -54 20 -103 44 -116 57 -186 90 -196 90 -4 1 -11 7 -16 14 -5 8 -11 13
-15 13 -3 -1 -7 -1 -8 0 -2 0 -12 2 -22 4 -10 2 -22 9 -26 15 -4 7 -9 11 -11
10 -2 0 -22 7 -44 16 -22 10 -42 18 -45 19 -3 0 -21 9 -40 20 -19 11 -38 18
-42 17 -5 -1 -8 3 -8 10 0 6 -3 8 -7 5 -3 -4 -12 -2 -18 3 -10 8 -10 16 -1 35
6 14 15 25 19 25 5 0 5 5 2 10 -3 6 -1 10 4 10 6 0 10 3 9 8 -1 4 3 16 9 27 6
11 12 23 12 27 1 4 25 56 53 115 29 60 52 110 53 113 1 3 19 41 40 85 21 44
39 82 40 85 0 3 13 29 28 58 15 28 25 52 21 52 -3 0 2 7 10 16 9 8 16 24 16
35 0 10 5 19 10 19 6 0 10 4 10 10 0 5 15 40 32 77 18 38 33 71 33 75 0 4 6
13 13 20 6 6 12 20 12 29 0 9 7 22 15 29 9 7 13 15 11 17 -3 3 4 21 14 41 28
55 43 95 41 110 -1 6 3 12 9 12 6 0 10 6 9 13 -3 14 8 62 22 95 7 17 6 21 -2
16 -8 -5 -9 -3 -4 6 4 7 10 36 12 64 2 28 6 60 7 71 2 11 0 32 -5 48 -5 16 -4
27 2 27 6 0 7 5 3 11 -3 6 -8 25 -9 42 -2 18 -6 43 -9 57 -13 56 -20 95 -18
103 1 4 -3 7 -8 7 -6 0 -10 6 -9 13 2 10 -5 33 -28 87 -3 8 -5 18 -5 23 1 4
-1 7 -6 7 -4 0 -13 15 -21 33 -8 17 -28 52 -45 77 -17 25 -29 46 -28 48 5 6
-176 181 -205 198 -18 10 -33 22 -33 26 0 4 -7 8 -15 8 -8 0 -15 5 -15 11 0 5
-4 7 -10 4 -5 -3 -10 -2 -10 2 0 5 -25 20 -55 34 -30 13 -55 28 -55 32 0 5 -5
5 -10 2 -6 -4 -17 -2 -24 4 -7 6 -23 13 -37 15 -13 3 -24 5 -24 6 0 1 -11 4
-25 7 -41 8 -55 11 -55 14 0 12 -294 20 -342 9z"/>
</g>
</svg>
